#!OML:ASF H:\ManfredObstacles\Project 1\Capture day 1\Session 1\Male.ASF
:FULLY-SPECIFIED
:DEGREES
449
root -5.67583 16.7899 -11.9871 -165.115 -62.3422 -184.281
lowerback -12.3543 -1.49012 -2.30605
upperback 1.60555 -1.77528 1.53069
thorax 8.79421 -1.02023 2.58796
lowerneck -3.63226 6.49634 -4.67597
upperneck -5.75836 8.79124 3.33538
head -1.5761 4.39309 1.79201
rclavicle -7.49418e-014 1.07344e-014
rhumerus -32.7934 -25.143 -75.8736
rradius 23.4297
rwrist 36.7393
rhand -0.0366626 -6.95467
rfingers 7.12502
rthumb 25.5553 -35.2605
lclavicle -7.49418e-014 1.07344e-014
lhumerus -24.7261 0.397825 93.2053
lradius 19.777
lwrist -26.0208
lhand -8.89669 8.34727
lfingers 7.12502
lthumb 17.0459 37.6194
rfemur -24.9386 -11.3267 22.369
rtibia 25.1094
rfoot -16.959 6.86053
rtoes 21.6157
lfemur 5.16285 -9.62877 -12.0775
ltibia 12.8771
lfoot 30.2733 -7.2533
ltoes 18.2763
450
root -5.67708 16.7893 -11.9913 -165.166 -62.4199 -184.282
lowerback -12.2074 -1.39115 -2.34897
upperback 1.60169 -1.64187 1.56006
thorax 8.69885 -0.957629 2.6726
lowerneck -3.56894 6.92648 -4.66202
upperneck -5.71262 9.36254 3.24508
head -1.59215 4.67995 1.7506
rclavicle 4.24405e-014 -7.15625e-015
rhumerus -32.8506 -25.2558 -75.7336
rradius 23.4162
rwrist 36.766
rhand -0.0556371 -6.8753
rfingers 7.12502
rthumb 25.5371 -35.1837
lclavicle 4.24405e-014 -7.15625e-015
lhumerus -24.5915 0.0864093 93.565
lradius 19.9807
lwrist -25.9261
lhand -8.84246 8.2509
lfingers 7.12502
lthumb 17.0981 37.5185
rfemur -24.8206 -11.2341 22.3516
rtibia 25.0695
rfoot -16.9562 6.68699
rtoes 22.525
lfemur 5.17716 -9.65105 -12.0531
ltibia 12.9655
lfoot 30.2296 -7.38167
ltoes 17.9903
451
root -5.67638 16.7895 -11.995 -165.186 -62.5746 -184.234
lowerback -12.1522 -1.23184 -2.19979
upperback 1.6028 -1.44494 1.47453
thorax 8.64784 -0.851698 2.53602
lowerneck -4.67774 7.81355 -5.41038
upperneck -4.96509 10.6588 5.11077
head -1.38748 5.33352 2.52364
rclavicle 4.30369e-014 -1.03368e-014
rhumerus -32.9306 -25.534 -75.6597
rradius 23.446
rwrist 36.6753
rhand 0.340024 -6.80749
rfingers 7.12502
rthumb 25.916 -35.061
lclavicle 4.30369e-014 -1.03368e-014
lhumerus -24.3554 -0.409529 93.8313
lradius 20.1026
lwrist -25.8438
lhand -8.82067 8.38815
lfingers 7.12502
lthumb 17.1191 37.654
rfemur -24.7961 -11.1305 22.3874
rtibia 25.0382
rfoot -17.1322 6.24161
rtoes 20.551
lfemur 5.06351 -9.65452 -11.9497
ltibia 13.0528
lfoot 30.2687 -7.6636
ltoes 17.6281
452
root -5.6758 16.7907 -11.9982 -165.053 -62.7425 -184.294
lowerback -12.1473 -1.04472 -2.06676
upperback 1.58437 -1.20372 1.34587
thorax 8.60288 -0.723743 2.37038
lowerneck -4.93308 8.09662 -5.84303
upperneck -4.78109 11.0794 5.7383
head -1.37944 5.55112 2.81452
rclavicle -6.55989e-015 -1.43125e-014
rhumerus -33.0639 -25.8281 -75.5746
rradius 23.4732
rwrist 36.5954
rhand 0.634584 -6.80421
rfingers 7.12502
rthumb 26.1981 -35.0162
lclavicle -6.55989e-015 -1.43125e-014
lhumerus -24.2062 -1.65604 94.2213
lradius 20.3224
lwrist -25.0854
lhand -8.92732 8.37713
lfingers 7.12502
lthumb 17.0164 37.6518
rfemur -24.8548 -11.0909 22.3907
rtibia 25.0208
rfoot -17.1959 5.95139
rtoes 19.8057
lfemur 4.88722 -9.58143 -11.8724
ltibia 13.118
lfoot 30.4124 -8.02309
ltoes 17.4908
453
root -5.67673 16.7921 -12.001 -164.721 -62.8873 -184.634
lowerback -12.1104 -0.810033 -2.02313
upperback 1.57773 -0.881699 1.17097
thorax 8.55089 -0.559635 2.22172
lowerneck -4.64945 8.01293 -6.12164
upperneck -4.92686 10.975 5.65103
head -1.48078 5.503 2.81962
rclavicle -1.17283e-014 -2.38542e-015
rhumerus -33.2685 -26.2942 -75.3854
rradius 23.508
rwrist 36.4915
rhand 0.681017 -6.86476
rfingers 7.12502
rthumb 26.2425 -35.0702
lclavicle -1.17283e-014 -2.38542e-015
lhumerus -24.1379 -3.24369 94.7145
lradius 20.5712
lwrist -24.1734
lhand -9.09468 8.13184
lfingers 7.12502
lthumb 16.8553 37.4203
rfemur -24.8464 -11.1431 22.2362
rtibia 24.9869
rfoot -17.2128 5.86018
rtoes 19.8755
lfemur 4.76383 -9.53007 -11.9696
ltibia 13.2113
lfoot 30.4538 -8.41097
ltoes 16.9962
454
root -5.67982 16.7936 -12.0014 -164.609 -63.088 -184.783
lowerback -12.0322 -0.614731 -1.89106
upperback 1.58023 -0.63321 1.07109
thorax 8.4913 -0.429263 2.08854
lowerneck -4.29429 7.9089 -6.64997
upperneck -5.15187 10.853 5.72059
head -1.64645 5.44863 2.91724
rclavicle -3.57812e-014 4.37326e-015
rhumerus -33.4882 -26.8572 -75.059
rradius 23.5172
rwrist 36.5574
rhand 0.743835 -6.8857
rfingers 7.12502
rthumb 26.3026 -35.0821
lclavicle -3.57812e-014 4.37326e-015
lhumerus -24.1224 -4.50586 95.2092
lradius 20.9179
lwrist -23.6019
lhand -8.92413 8.32216
lfingers 7.12502
lthumb 17.0195 37.5966
rfemur -24.7656 -11.3743 22.1905
rtibia 24.9367
rfoot -17.2199 5.966
rtoes 20.1844
lfemur 4.7103 -9.59351 -11.9887
ltibia 13.2957
lfoot 30.3648 -8.53916
ltoes 16.6807
455
root -5.68349 16.7942 -12.0011 -164.7 -63.357 -184.679
lowerback -11.9994 -0.540675 -1.67707
upperback 1.59114 -0.561139 1.00568
thorax 8.47693 -0.382107 1.91148
lowerneck -3.89275 7.87519 -6.97144
upperneck -5.45151 10.8073 5.68388
head -1.83043 5.42807 2.93891
rclavicle -9.31306e-014 1.98785e-015
rhumerus -33.585 -27.1921 -74.9233
rradius 23.4493
rwrist 36.8662
rhand 0.847243 -6.87338
rfingers 7.12502
rthumb 26.4016 -35.055
lclavicle -9.31306e-014 1.98785e-015
lhumerus -24.1093 -5.53876 95.5033
lradius 21.3526
lwrist -22.9398
lhand -8.61782 8.743
lfingers 7.12502
lthumb 17.3143 37.9918
rfemur -24.6987 -11.5937 22.2875
rtibia 24.8794
rfoot -17.2551 5.9743
rtoes 20.0791
lfemur 4.64208 -9.68332 -11.8542
ltibia 13.3415
lfoot 30.3255 -8.44853
ltoes 16.9148
456
root -5.68285 16.7969 -12.0024 -164.624 -63.6908 -184.713
lowerback -11.9777 -0.556961 -1.62543
upperback 1.60043 -0.586428 0.956941
thorax 8.47442 -0.390439 1.82547
lowerneck -3.68495 8.06705 -6.52741
upperneck -5.60502 11.0153 4.89834
head -1.84743 5.52991 2.58164
rclavicle 3.60794e-014 8.74653e-015
rhumerus -33.5038 -27.0592 -75.0439
rradius 23.3267
rwrist 36.9357
rhand 0.794411 -6.83228
rfingers 7.12502
rthumb 26.3511 -35.0215
lclavicle 3.60794e-014 8.74653e-015
lhumerus -23.9195 -5.87626 95.59
lradius 21.5285
lwrist -22.6707
lhand -8.58985 8.79326
lfingers 7.12502
lthumb 17.3412 38.0396
rfemur -24.6661 -11.6418 22.308
rtibia 24.7988
rfoot -17.3187 5.64915
rtoes 19.7837
lfemur 4.47302 -9.82175 -11.7223
ltibia 13.4171
lfoot 30.3827 -8.34622
ltoes 17.3768
457
root -5.67909 16.8009 -12.0052 -164.373 -64.0324 -184.953
lowerback -11.9108 -0.62073 -1.80946
upperback 1.61008 -0.647909 0.99389
thorax 8.45225 -0.42983 1.95748
lowerneck -3.70697 8.49619 -5.58531
upperneck -5.5886 11.5118 3.54244
head -1.70815 5.77492 1.97002
rclavicle -2.29596e-014 -1.11319e-014
rhumerus -33.362 -26.8185 -75.0584
rradius 23.1739
rwrist 37.0658
rhand 0.627675 -6.69479
rfingers 7.12502
rthumb 26.1914 -34.9078
lclavicle -2.29596e-014 -1.11319e-014
lhumerus -23.2482 -3.08379 95.0995
lradius 20.9176
lwrist -25.433
lhand -8.59147 8.08766
lfingers 7.12502
lthumb 17.3397 37.3342
rfemur -24.6308 -11.6451 22.2251
rtibia 24.7126
rfoot -17.355 5.27091
rtoes 19.6327
lfemur 4.28987 -10.0242 -11.6701
ltibia 13.5258
lfoot 30.4253 -8.26905
ltoes 17.817
458
root -5.67666 16.8006 -12.0101 -164.406 -64.2932 -184.967
lowerback -11.811 -0.619981 -1.90293
upperback 1.65076 -0.636624 1.02362
thorax 8.44002 -0.429733 2.04459
lowerneck -3.76457 8.80299 -5.13933
upperneck -5.58524 11.8881 2.92413
head -1.64073 5.96104 1.6951
rclavicle -2.94201e-014 7.95139e-016
rhumerus -33.3475 -27.0332 -74.9081
rradius 23.065
rwrist 37.6064
rhand 0.493653 -6.58977
rfingers 7.12502
rthumb 26.0631 -34.8217
lclavicle -2.94201e-014 7.95139e-016
lhumerus -22.2859 3.77915 93.6295
lradius 19.5745
lwrist -32.3714
lhand -8.51212 6.40418
lfingers 7.12502
lthumb 17.416 35.644
rfemur -24.5064 -11.5672 22.2212
rtibia 24.6597
rfoot -17.4275 4.94316
rtoes 19.6801
lfemur 4.27484 -10.0661 -11.5587
ltibia 13.5823
lfoot 30.4288 -8.46326
ltoes 17.9332
459
root -5.67622 16.7985 -12.0154 -164.741 -64.5251 -184.676
lowerback -11.7293 -0.505744 -1.7703
upperback 1.7079 -0.501364 0.988018
thorax 8.44585 -0.357165 1.95741
lowerneck -3.79874 8.8763 -5.13445
upperneck -5.59552 11.9904 2.9911
head -1.64748 6.0116 1.71487
rclavicle 8.74653e-015 2.38542e-015
rhumerus -33.4404 -27.3579 -74.8232
rradius 23.1011
rwrist 37.75
rhand 0.428967 -6.60152
rfingers 7.12502
rthumb 26.0012 -34.8426
lclavicle 8.74653e-015 2.38542e-015
lhumerus -22.4084 0.389918 94.399
lradius 20.2275
lwrist -29.1885
lhand -8.57527 6.72009
lfingers 7.12502
lthumb 17.3552 35.9652
rfemur -24.3463 -11.5417 22.3683
rtibia 24.631
rfoot -17.5217 4.709
rtoes 19.8096
lfemur 4.34361 -10.0104 -11.3254
ltibia 13.5838
lfoot 30.4418 -8.78761
ltoes 17.9281
